<?xml version="1.0" encoding="utf-8"?>
<!-- Generator: Adobe Illustrator 18.1.0, SVG Export Plug-In . SVG Version: 6.00 Build 0)  -->
<!DOCTYPE svg PUBLIC "-//W3C//DTD SVG 1.1//EN" "http://www.w3.org/Graphics/SVG/1.1/DTD/svg11.dtd">
<svg version="1.1" id="Layer_1" xmlns="http://www.w3.org/2000/svg" xmlns:xlink="http://www.w3.org/1999/xlink" x="0px" y="0px"
	 viewBox="0 0 160 160" enable-background="new 0 0 160 160" xml:space="preserve">
<g>
	<path fill="#AD0C3C" d="M80,2C36.9,2,2,36.9,2,80c0,43.1,34.9,78,78,78c2.6,0,5.2-0.1,7.8-0.4c38.2-3.8,68.3-35.1,70.1-73.8
		c0.1-1.3,0.1-2.5,0.1-3.8C158,36.9,123.1,2,80,2z"/>
	<path opacity="0.2" d="M157.9,83.8l-34.2-27.1L71.4,35.9L36.8,50.7l1.9,57.8l49.1,49.1C126,153.8,156,122.5,157.9,83.8z"/>
</g>
<g>
	<path fill="#EF3E42" d="M91.3,72c-1.7,1-3.7,1.1-5.6,0.4l-4.4-1.8l33.2-17.5v-3.4L80,68c-1.3,0.7-2.1,2.1-2.1,3.6v48.2
		c0,2.6,1.6,5,4.1,6l2.4,1c1.2,0.5,2.5,0.7,3.8,0.7c1.6,0,3.2-0.4,4.6-1.2l32.6-17.1v-55L91.3,72z M121,72.7L99.4,84.3v-8.6
		L121,64.1V72.7z"/>
	<g>
		<g>
			<path fill="#FFFFFF" d="M82.2,36.8l-34,17.9c-1.7,1-3.7,1.1-5.6,0.4l-4.4-1.8l33.2-17.5v-3.4L36.8,50.7c-1.3,0.7-2.1,2.1-2.1,3.6
				v48.2c0,2.6,1.6,5,4.1,6l2.4,1c1.2,0.5,2.5,0.7,3.8,0.7c1.6,0,3.2-0.4,4.6-1.2l2.5-1.3c0-0.3-0.1-0.5-0.1-0.8V58.7
				c0-1.5,0.8-2.9,2.1-3.6l28.1-14.8V36.8z"/>
		</g>
		<g>
			<path fill="#FFFFFF" d="M103.7,45.5l-34,17.9c-1.7,1-3.7,1.1-5.6,0.4L59.8,62L93,44.5v-3.4L58.4,59.4c-1.3,0.7-2.1,2.1-2.1,3.6
				v48.2c0,2.6,1.6,5,4.1,6l2.4,1c1.2,0.5,2.5,0.7,3.8,0.7c1.6,0,3.2-0.4,4.6-1.2l2.5-1.3c0-0.3-0.1-0.5-0.1-0.8V67.3
				c0-1.5,0.8-2.9,2.1-3.6l28.1-14.8V45.5z"/>
		</g>
	</g>
</g>
</svg>
